<svg xmlns="http://www.w3.org/2000/svg" aria-hidden="true" style="width:0;height:0;position:absolute;overflow:hidden"><defs><symbol id="facebook" viewBox="0 0 16 16"><path stroke-linecap="round" stroke-linejoin="round" d="M12 1.333h-2a3.333 3.333 0 0 0-3.333 3.333v2h-2v2.667h2v5.333h2.667V9.333h2l.667-2.667H9.334v-2A.665.665 0 0 1 10 4h2V1.333z"/></symbol><symbol id="instagram" viewBox="0 0 32 32"><path d="M16 2.881c4.275 0 4.781.019 6.462.094 1.563.069 2.406.331 2.969.55a4.952 4.952 0 0 1 1.837 1.194 5.015 5.015 0 0 1 1.2 1.838c.219.563.481 1.412.55 2.969.075 1.688.094 2.194.094 6.463s-.019 4.781-.094 6.463c-.069 1.563-.331 2.406-.55 2.969a4.94 4.94 0 0 1-1.194 1.837 5.02 5.02 0 0 1-1.837 1.2c-.563.219-1.413.481-2.969.55-1.688.075-2.194.094-6.463.094s-4.781-.019-6.463-.094c-1.563-.069-2.406-.331-2.969-.55a4.952 4.952 0 0 1-1.838-1.194 5.02 5.02 0 0 1-1.2-1.837c-.219-.563-.481-1.413-.55-2.969-.075-1.688-.094-2.194-.094-6.463s.019-4.781.094-6.463c.069-1.563.331-2.406.55-2.969a4.964 4.964 0 0 1 1.194-1.838 5.015 5.015 0 0 1 1.838-1.2c.563-.219 1.412-.481 2.969-.55 1.681-.075 2.188-.094 6.463-.094zM16 0c-4.344 0-4.887.019-6.594.094-1.7.075-2.869.35-3.881.744-1.056.412-1.95.956-2.837 1.85a7.833 7.833 0 0 0-1.85 2.831C.444 6.538.169 7.7.094 9.4.019 11.113 0 11.656 0 16s.019 4.887.094 6.594c.075 1.7.35 2.869.744 3.881.413 1.056.956 1.95 1.85 2.837a7.82 7.82 0 0 0 2.831 1.844c1.019.394 2.181.669 3.881.744 1.706.075 2.25.094 6.594.094s4.888-.019 6.594-.094c1.7-.075 2.869-.35 3.881-.744 1.05-.406 1.944-.956 2.831-1.844s1.438-1.781 1.844-2.831c.394-1.019.669-2.181.744-3.881.075-1.706.094-2.25.094-6.594s-.019-4.887-.094-6.594c-.075-1.7-.35-2.869-.744-3.881a7.506 7.506 0 0 0-1.831-2.844A7.82 7.82 0 0 0 26.482.843C25.463.449 24.301.174 22.601.099c-1.712-.081-2.256-.1-6.6-.1z"/><path d="M16 7.781c-4.537 0-8.219 3.681-8.219 8.219s3.681 8.219 8.219 8.219 8.219-3.681 8.219-8.219A8.221 8.221 0 0 0 16 7.781zm0 13.55a5.331 5.331 0 1 1 0-10.663 5.331 5.331 0 0 1 0 10.663zM26.462 7.456a1.919 1.919 0 1 1-3.838 0 1.919 1.919 0 0 1 3.838 0z"/></symbol><symbol id="chevron-left" viewBox="0 0 16 16"><path stroke-linecap="round" stroke-linejoin="round" stroke-width=".889" d="M9.778 11.111 6.667 8l3.111-3.111"/></symbol><symbol id="chevron-right" viewBox="0 0 16 16"><path stroke-linecap="round" stroke-linejoin="round" stroke-width=".889" d="M6.222 11.111 9.333 8 6.222 4.889"/></symbol><symbol id="chevron-down" viewBox="0 0 16 16"><path stroke-linecap="round" stroke-linejoin="round" stroke-width="1.44" d="m4 6 4 4 4-4"/></symbol><symbol id="x-close" viewBox="0 0 16 16"><path stroke-linecap="round" stroke-linejoin="round" stroke-width="1.143" d="m12 4-8 8m0-8 8 8"/></symbol><symbol id="burger" viewBox="0 0 16 16"><path stroke-linecap="round" stroke-linejoin="round" d="M2 8h12M2 4h12M2 12h8"/></symbol><symbol id="telegram" viewBox="0 0 32 32"><path d="M16 0C7.162 0 0 7.162 0 16s7.162 16 16 16 16-7.163 16-16S24.837 0 16 0zm7.863 10.969-2.625 12.369c-.181.881-.712 1.087-1.45.681l-4-2.956-1.919 1.869c-.225.219-.4.4-.8.4-.519 0-.431-.194-.606-.688L11.1 18.169l-3.956-1.231c-.856-.262-.862-.85.194-1.269l15.412-5.95c.7-.319 1.381.169 1.113 1.25z"/></symbol><symbol id="tiktok" viewBox="0 0 32 32"><path d="M26.119 8.915c-2.714-.596-4.759-2.855-5.025-5.634l-.002-.026v-.588h-4.593v18.229a3.862 3.862 0 0 1-6.928 2.334l-.007-.009a3.86 3.86 0 0 1 4.272-6.006l-.027-.008V12.54a8.439 8.439 0 0 0-7.191 14.258l-.002-.002a8.44 8.44 0 0 0 14.476-5.898v-9.315a10.825 10.825 0 0 0 6.345 2.035h.02-.001V9.054h-.008c-.471 0-.93-.05-1.372-.146l.042.008z"/></symbol></defs></svg>