<svg xmlns="http://www.w3.org/2000/svg" aria-hidden="true" style="position:absolute;width:0;height:0;overflow:hidden">
  <defs>
    <symbol id="facebook" viewBox="0 0 16 16">
      <path stroke-linecap="round" stroke-linejoin="round" d="M12 1.333h-2a3.333 3.333 0 0 0-3.333 3.333v2h-2v2.667h2v5.333h2.667V9.333h2l.667-2.667H9.334v-2A.665.665 0 0 1 10 4h2V1.333z"/>
    </symbol>
    <symbol id="instagram" viewBox="0 0 32 32">
    <path d="M16 2.881c4.275 0 4.781 0.019 6.462 0.094 1.563 0.069 2.406 0.331 2.969 0.55 0.744 0.288 1.281 0.638 1.837 1.194 0.563 0.563 0.906 1.094 1.2 1.838 0.219 0.563 0.481 1.412 0.55 2.969 0.075 1.688 0.094 2.194 0.094 6.463s-0.019 4.781-0.094 6.463c-0.069 1.563-0.331 2.406-0.55 2.969-0.288 0.744-0.637 1.281-1.194 1.837-0.563 0.563-1.094 0.906-1.837 1.2-0.563 0.219-1.413 0.481-2.969 0.55-1.688 0.075-2.194 0.094-6.463 0.094s-4.781-0.019-6.463-0.094c-1.563-0.069-2.406-0.331-2.969-0.55-0.744-0.288-1.281-0.637-1.838-1.194-0.563-0.563-0.906-1.094-1.2-1.837-0.219-0.563-0.481-1.413-0.55-2.969-0.075-1.688-0.094-2.194-0.094-6.463s0.019-4.781 0.094-6.463c0.069-1.563 0.331-2.406 0.55-2.969 0.288-0.744 0.638-1.281 1.194-1.838 0.563-0.563 1.094-0.906 1.838-1.2 0.563-0.219 1.412-0.481 2.969-0.55 1.681-0.075 2.188-0.094 6.463-0.094zM16 0c-4.344 0-4.887 0.019-6.594 0.094-1.7 0.075-2.869 0.35-3.881 0.744-1.056 0.412-1.95 0.956-2.837 1.85-0.894 0.888-1.438 1.781-1.85 2.831-0.394 1.019-0.669 2.181-0.744 3.881-0.075 1.713-0.094 2.256-0.094 6.6s0.019 4.887 0.094 6.594c0.075 1.7 0.35 2.869 0.744 3.881 0.413 1.056 0.956 1.95 1.85 2.837 0.887 0.887 1.781 1.438 2.831 1.844 1.019 0.394 2.181 0.669 3.881 0.744 1.706 0.075 2.25 0.094 6.594 0.094s4.888-0.019 6.594-0.094c1.7-0.075 2.869-0.35 3.881-0.744 1.050-0.406 1.944-0.956 2.831-1.844s1.438-1.781 1.844-2.831c0.394-1.019 0.669-2.181 0.744-3.881 0.075-1.706 0.094-2.25 0.094-6.594s-0.019-4.887-0.094-6.594c-0.075-1.7-0.35-2.869-0.744-3.881-0.394-1.063-0.938-1.956-1.831-2.844-0.887-0.887-1.781-1.438-2.831-1.844-1.019-0.394-2.181-0.669-3.881-0.744-1.712-0.081-2.256-0.1-6.6-0.1v0z"></path>
    <path d="M16 7.781c-4.537 0-8.219 3.681-8.219 8.219s3.681 8.219 8.219 8.219 8.219-3.681 8.219-8.219c0-4.537-3.681-8.219-8.219-8.219zM16 21.331c-2.944 0-5.331-2.387-5.331-5.331s2.387-5.331 5.331-5.331c2.944 0 5.331 2.387 5.331 5.331s-2.387 5.331-5.331 5.331z"></path>
    <path d="M26.462 7.456c0 1.060-0.859 1.919-1.919 1.919s-1.919-0.859-1.919-1.919c0-1.060 0.859-1.919 1.919-1.919s1.919 0.859 1.919 1.919z"></path>
    </symbol>
    <symbol id="chevron-left" viewBox="0 0 16 16">
      <path stroke-linecap="round" fill="white" stroke-linejoin="round" stroke-width=".889" d="M9.778 11.111 6.667 8l3.111-3.111"/>
    </symbol>
    <symbol id="chevron-right" viewBox="0 0 16 16">
      <path stroke-linecap="round" fill="white" stroke-linejoin="round" stroke-width=".889" d="M6.222 11.111 9.333 8 6.222 4.889"/>
    </symbol>
    <symbol id="chevron-down" viewBox="0 0 16 16">
      <path stroke-linecap="round" stroke-linejoin="round" stroke-width="1.44" d="m4 6 4 4 4-4"/>
    </symbol>
    <symbol id="x-close" viewBox="0 0 16 16">
      <path stroke-linecap="round" stroke-linejoin="round" stroke-width="1.143" d="m12 4-8 8m0-8 8 8"/>
    </symbol>
    <symbol id="burger" viewBox="0 0 16 16">
      <path stroke-linecap="round" stroke-linejoin="round" d="M2 8h12M2 4h12M2 12h8"/>
    </symbol>
    <symbol id="telegram" viewBox="0 0 32 32">
    <path d="M16 0c-8.838 0-16 7.162-16 16s7.162 16 16 16 16-7.163 16-16-7.163-16-16-16zM23.863 10.969l-2.625 12.369c-0.181 0.881-0.712 1.087-1.45 0.681l-4-2.956-1.919 1.869c-0.225 0.219-0.4 0.4-0.8 0.4-0.519 0-0.431-0.194-0.606-0.688l-1.363-4.475-3.956-1.231c-0.856-0.262-0.862-0.85 0.194-1.269l15.412-5.95c0.7-0.319 1.381 0.169 1.113 1.25z"></path>
    </symbol>
    <symbol id="tiktok" viewBox="0 0 32 32">
    <path d="M26.119 8.915c-2.714-0.596-4.759-2.855-5.025-5.634l-0.002-0.026v-0.588h-4.593v18.229c-0.008 2.127-1.734 3.848-3.861 3.848-1.25 0-2.361-0.594-3.067-1.514l-0.007-0.009c-0.491-0.641-0.786-1.453-0.786-2.335 0-2.132 1.728-3.86 3.86-3.86 0.418 0 0.821 0.066 1.198 0.189l-0.027-0.008v-4.667c-0.347-0.051-0.748-0.079-1.156-0.079-4.661 0-8.439 3.778-8.439 8.439 0 2.296 0.917 4.377 2.404 5.898l-0.002-0.002c1.534 1.568 3.671 2.541 6.036 2.541 4.661 0 8.44-3.778 8.44-8.439v-9.315c1.761 1.272 3.964 2.035 6.345 2.035 0.007 0 0.014 0 0.020-0h-0.001v-4.564c-0.002 0-0.005 0-0.008 0-0.471 0-0.93-0.050-1.372-0.146l0.042 0.008z"></path>
    </symbol>
  </defs>
</svg>